<?xml version="1.0" encoding="utf-8"?>
<!-- Generator: Adobe Illustrator 16.0.0, SVG Export Plug-In . SVG Version: 6.00 Build 0)  -->
<!DOCTYPE svg PUBLIC "-//W3C//DTD SVG 1.1//EN" "http://www.w3.org/Graphics/SVG/1.1/DTD/svg11.dtd">
<svg version="1.1" xmlns="http://www.w3.org/2000/svg" xmlns:xlink="http://www.w3.org/1999/xlink" x="0px" y="0px"
	 width="185.102px" height="28.148px" viewBox="0 0 185.102 28.148" enable-background="new 0 0 185.102 28.148"
	 xml:space="preserve">
<g id="Grid" display="none">
</g>
<g id="_x31_6_Col_Grid" display="none" opacity="0.1" enable-background="new    ">
</g>
<g id="Layer_3">
	<g>
		<line fill="none" stroke="#808080" stroke-miterlimit="10" x1="100.556" y1="2.074" x2="100.556" y2="28.074"/>
		<g>
			<path fill="#808080" d="M118.003,15.043c-0.085-1.598-0.188-3.52-0.17-4.947h-0.052c-0.391,1.344-0.866,2.771-1.444,4.352
				l-2.023,5.559h-1.121l-1.854-5.456c-0.544-1.614-1.003-3.094-1.325-4.454h-0.034c-0.034,1.428-0.119,3.35-0.221,5.066
				l-0.307,4.912h-1.41l0.799-11.457h1.887l1.954,5.541c0.477,1.412,0.867,2.67,1.156,3.859h0.051
				c0.289-1.156,0.697-2.414,1.207-3.859l2.04-5.541h1.887l0.714,11.457h-1.444L118.003,15.043z"/>
			<path fill="#808080" d="M123.698,16.471l-1.189,3.604h-1.53l3.893-11.457h1.785l3.909,11.457h-1.58l-1.225-3.604H123.698z
				 M127.455,15.314l-1.122-3.297c-0.255-0.748-0.425-1.428-0.595-2.092h-0.034c-0.17,0.68-0.356,1.377-0.578,2.074l-1.122,3.314
				H127.455z"/>
			<path fill="#808080" d="M140.714,19.564c-0.663,0.238-1.972,0.629-3.519,0.629c-1.733,0-3.161-0.441-4.283-1.514
				c-0.986-0.951-1.598-2.48-1.598-4.266c0.017-3.417,2.362-5.916,6.204-5.916c1.326,0,2.362,0.289,2.855,0.527l-0.356,1.207
				c-0.612-0.271-1.377-0.493-2.533-0.493c-2.788,0-4.606,1.733-4.606,4.606c0,2.906,1.751,4.623,4.42,4.623
				c0.969,0,1.632-0.135,1.972-0.305v-3.418h-2.329v-1.189h3.773V19.564z"/>
			<path fill="#808080" d="M144.829,16.471l-1.189,3.604h-1.53l3.893-11.457h1.785l3.909,11.457h-1.58l-1.225-3.604H144.829z
				 M148.586,15.314l-1.122-3.297c-0.255-0.748-0.425-1.428-0.595-2.092h-0.034c-0.17,0.68-0.356,1.377-0.578,2.074l-1.122,3.314
				H148.586z"/>
			<path fill="#808080" d="M152.599,19.207l6.357-9.298V9.858h-5.813V8.617h7.734v0.9l-6.323,9.265v0.052h6.408v1.24h-8.363V19.207z
				"/>
			<path fill="#808080" d="M164.26,8.617v11.457h-1.479V8.617H164.26z"/>
			<path fill="#808080" d="M166.845,20.074V8.617h1.614l3.672,5.797c0.851,1.343,1.513,2.549,2.057,3.723l0.034-0.018
				c-0.136-1.529-0.17-2.924-0.17-4.708V8.617h1.394v11.457h-1.495l-3.638-5.813c-0.799-1.274-1.564-2.583-2.142-3.825l-0.052,0.018
				c0.085,1.445,0.119,2.822,0.119,4.726v4.896H166.845z"/>
			<path fill="#808080" d="M183.963,14.703h-4.454v4.131h4.964v1.24h-6.442V8.617h6.188v1.241h-4.709v3.62h4.454V14.703z"/>
		</g>
		<g>
			<path fill="#4D4D4D" d="M47.873,16.557c-1.08,1.52-2.213,2.281-3.402,2.281c-1.942,0-2.915-1.517-2.915-4.549
				c0-1.594,0.293-2.862,0.878-3.807c0.585-0.945,1.367-1.418,2.349-1.418c1.099,0,2.128,0.539,3.091,1.619V16.557z M51.883,21.633
				V0.316h-4.01v7.992c-1.269-1.224-2.677-1.836-4.226-1.836c-1.935,0-3.475,0.738-4.622,2.214s-1.723,3.456-1.723,5.938
				c0,2.287,0.51,4.082,1.527,5.387c1.016,1.305,2.416,1.957,4.198,1.957c2.203,0,3.819-1.043,4.845-3.131v2.795H51.883z
				 M35.763,0.316h-3.996v21.316h3.996V0.316z M28.983,6.811h-3.995v14.822h3.995V6.811z M8.95,21.633l3.227-13.702l3.077,13.702
				h3.968l5.237-19.979h-2.874l-3.834,14.538L14.483,1.653h-3.468l-3.443,14.62L3.929,1.653H0l4.981,19.979H8.95z"/>
			<path fill="#1D1D1B" d="M27.108,5.784c1.152,0,2.086-0.935,2.086-2.087c0-1.151-0.934-2.086-2.086-2.086
				c-1.151,0-2.087,0.935-2.087,2.086C25.021,4.85,25.957,5.784,27.108,5.784"/>
			<path fill="#D9E021" d="M83.298,8.99c1.629,0,2.442,1.264,2.442,3.793h-5.318C80.683,10.254,81.642,8.99,83.298,8.99
				 M89.669,18.345c-1.684,0.621-3.194,0.932-4.535,0.932c-2.835,0-4.389-1.413-4.658-4.238h9.193c0-2.961-0.5-5.126-1.499-6.493
				c-0.998-1.367-2.582-2.053-4.751-2.053c-2.151,0-3.881,0.7-5.189,2.1c-1.311,1.399-1.965,3.246-1.965,5.541
				c0,2.431,0.716,4.348,2.146,5.75c1.43,1.404,3.384,2.106,5.858,2.106c1.701,0,3.5-0.278,5.399-0.837V18.345z M72.767,21.652
				V9.328h3.753V6.83h-3.753V5.615c0-2.078,0.688-3.118,2.064-3.118c0.9,0,1.917,0.239,3.051,0.716V0.514
				C76.631,0.172,75.417,0,74.237,0c-3.645,0-5.466,1.922-5.466,5.764V6.83h-2.039v2.498h2.039v12.324H72.767z M65.017,6.83h-3.996
				v14.822h3.996V6.83z M58.237,0.338h-3.996v21.314h3.996V0.338z"/>
			<path fill="#D9E021" d="M63.041,5.795c1.152,0,2.086-0.935,2.086-2.086c0-1.153-0.934-2.088-2.086-2.088
				c-1.153,0-2.087,0.935-2.087,2.088C60.954,4.86,61.888,5.795,63.041,5.795"/>
			<path fill="#4D4D4D" d="M56.586,26.529H55.47l0.553-1.655h0.011L56.586,26.529z M54.122,28.079h0.794l0.335-0.919H56.8
				l0.329,0.919h0.849l-1.5-4.01h-0.865L54.122,28.079z M59.21,26.632c0,1.075,0.58,1.517,1.561,1.517s1.562-0.441,1.562-1.517
				v-2.563h-0.768v2.315c0,0.684-0.208,1.132-0.794,1.132s-0.795-0.448-0.795-1.132v-2.315H59.21V26.632z M66.082,24.145
				c-0.279-0.098-0.585-0.144-0.914-0.144c-0.675,0-1.336,0.327-1.336,1.224c0,1.327,1.675,1.011,1.675,1.775
				c0,0.361-0.388,0.517-0.678,0.517c-0.302,0-0.604-0.098-0.865-0.247l-0.071,0.724c0.376,0.098,0.563,0.155,0.979,0.155
				c0.771,0,1.435-0.333,1.435-1.213c0-1.344-1.675-1.051-1.675-1.746c0-0.436,0.339-0.557,0.602-0.557
				c0.268,0,0.537,0.063,0.777,0.172L66.082,24.145z M68.464,28.079h0.768v-3.378h1.095v-0.632H67.37v0.632h1.094V28.079z
				 M72.281,24.701h0.253c0.382,0,0.809,0.041,0.809,0.523c0,0.5-0.431,0.557-0.809,0.557h-0.253V24.701z M71.515,28.079h0.767
				v-1.665h0.247c0.322,0,0.421,0.115,0.53,0.413l0.46,1.252h0.854l-0.612-1.567c-0.077-0.179-0.197-0.396-0.406-0.414v-0.012
				c0.488-0.068,0.79-0.459,0.79-0.93c0-1.115-0.981-1.087-1.804-1.087h-0.826V28.079z M77.763,26.529h-1.116l0.553-1.655h0.011
				L77.763,26.529z M75.3,28.079h0.793l0.335-0.919h1.549l0.329,0.919h0.849l-1.5-4.01h-0.865L75.3,28.079z M80.413,28.079h2.251
				v-0.632h-1.483v-3.378h-0.768V28.079z M83.854,28.079h0.767v-4.01h-0.767V28.079z M88.277,26.529h-1.116l0.553-1.655h0.011
				L88.277,26.529z M85.814,28.079h0.793l0.335-0.919h1.549l0.329,0.919h0.849l-1.5-4.01h-0.865L85.814,28.079z"/>
		</g>
	</g>
</g>
</svg>
